<svg id="exclamation-mark" xmlns="http://www.w3.org/2000/svg" width="107.315" height="107.315" viewBox="0 0 107.315 107.315">
  <path id="Trazado_55" data-name="Trazado 55" d="M53.657,0a53.657,53.657,0,1,0,53.657,53.657A53.66,53.66,0,0,0,53.657,0Zm0,97.254a43.6,43.6,0,1,1,43.6-43.6A43.6,43.6,0,0,1,53.657,97.254Zm0-73.722c-3.843,0-6.751,2.006-6.751,5.245V58.49c0,3.243,2.907,5.242,6.751,5.242,3.749,0,6.751-2.082,6.751-5.242V28.777C60.411,25.615,57.41,23.532,53.661,23.532Zm0,46.893a6.7,6.7,0,1,0,6.694,6.7A6.706,6.706,0,0,0,53.661,70.425Z" fill="#4886fe"/>
</svg>
